<svg width="370" height="250" viewBox="0 0 370 250" fill="none" xmlns="http://www.w3.org/2000/svg">
<g filter="url(#filter0_d)">
<mask id="mask0" mask-type="alpha" maskUnits="userSpaceOnUse" x="25" y="13" width="320" height="200">
<path d="M324 13H46C34.402 13 25 22.402 25 34V192C25 203.598 34.402 213 46 213H324C335.598 213 345 203.598 345 192V34C345 22.402 335.598 13 324 13Z" fill="white"/>
</mask>
<g mask="url(#mask0)">
<path d="M324 13H46C34.402 13 25 22.402 25 34V192C25 203.598 34.402 213 46 213H324C335.598 213 345 203.598 345 192V34C345 22.402 335.598 13 324 13Z" fill="url(#paint0_linear)"/>
<path style="mix-blend-mode:soft-light" opacity="0.7" fill-rule="evenodd" clip-rule="evenodd" d="M339 -47C309.161 60.0943 270.129 131.579 221.905 167.453C173.68 203.327 102.379 218.01 8.00002 211.5V-47H339Z" fill="url(#paint1_linear)"/>
<g style="mix-blend-mode:hue" opacity="0.4">
<path fill-rule="evenodd" clip-rule="evenodd" d="M402 -49C365.85 58.0943 318.564 129.579 260.141 165.453C201.718 201.327 115.338 216.01 1 209.5V-49H402Z" fill="url(#paint2_linear)" style="mix-blend-mode:soft-light"/>
</g>
<path style="mix-blend-mode:soft-light" opacity="0.6" fill-rule="evenodd" clip-rule="evenodd" d="M257.405 -83.3776C260.31 9.28058 244.376 77.827 209.603 122.262C174.83 166.696 112.383 202.951 22.2624 231.027L-52.0959 32.6107L257.405 -83.3776Z" fill="url(#paint3_linear)"/>
</g>
<path d="M66.2 75.8L62.424 87H61.176L57.896 77.448L54.6 87H53.368L49.592 75.8H50.808L54.04 85.432L57.384 75.8H58.488L61.784 85.48L65.064 75.8H66.2ZM71.2343 87.08C70.4236 87.08 69.6929 86.8987 69.0423 86.536C68.3916 86.1627 67.8796 85.6507 67.5063 85C67.1329 84.3493 66.9463 83.6133 66.9463 82.792C66.9463 81.9707 67.1329 81.2347 67.5063 80.584C67.8796 79.9333 68.3916 79.4267 69.0423 79.064C69.6929 78.7013 70.4236 78.52 71.2343 78.52C72.0449 78.52 72.7756 78.7013 73.4263 79.064C74.0769 79.4267 74.5836 79.9333 74.9463 80.584C75.3196 81.2347 75.5063 81.9707 75.5063 82.792C75.5063 83.6133 75.3196 84.3493 74.9463 85C74.5836 85.6507 74.0769 86.1627 73.4263 86.536C72.7756 86.8987 72.0449 87.08 71.2343 87.08ZM71.2343 86.072C71.8316 86.072 72.3649 85.9387 72.8343 85.672C73.3143 85.3947 73.6876 85.0053 73.9543 84.504C74.2209 84.0027 74.3543 83.432 74.3543 82.792C74.3543 82.152 74.2209 81.5813 73.9543 81.08C73.6876 80.5787 73.3143 80.1947 72.8343 79.928C72.3649 79.6507 71.8316 79.512 71.2343 79.512C70.6369 79.512 70.0983 79.6507 69.6183 79.928C69.1489 80.1947 68.7756 80.5787 68.4983 81.08C68.2316 81.5813 68.0983 82.152 68.0983 82.792C68.0983 83.432 68.2316 84.0027 68.4983 84.504C68.7756 85.0053 69.1489 85.3947 69.6183 85.672C70.0983 85.9387 70.6369 86.072 71.2343 86.072ZM79.2175 80.232C79.4842 79.6667 79.8788 79.24 80.4015 78.952C80.9348 78.664 81.5908 78.52 82.3695 78.52V79.624L82.0975 79.608C81.2122 79.608 80.5188 79.88 80.0175 80.424C79.5162 80.968 79.2655 81.7307 79.2655 82.712V87H78.1295V78.584H79.2175V80.232ZM84.7304 75.128H85.8664V87H84.7304V75.128ZM97.0113 75.128V87H95.9233V85.336C95.5819 85.9013 95.1286 86.3333 94.5633 86.632C94.0086 86.9307 93.3792 87.08 92.6753 87.08C91.8859 87.08 91.1712 86.8987 90.5312 86.536C89.8912 86.1733 89.3899 85.6667 89.0272 85.016C88.6646 84.3653 88.4832 83.624 88.4832 82.792C88.4832 81.96 88.6646 81.2187 89.0272 80.568C89.3899 79.9173 89.8912 79.416 90.5312 79.064C91.1712 78.7013 91.8859 78.52 92.6753 78.52C93.3579 78.52 93.9712 78.664 94.5152 78.952C95.0699 79.2293 95.5232 79.64 95.8752 80.184V75.128H97.0113ZM92.7712 86.072C93.3579 86.072 93.8859 85.9387 94.3552 85.672C94.8353 85.3947 95.2086 85.0053 95.4752 84.504C95.7526 84.0027 95.8912 83.432 95.8912 82.792C95.8912 82.152 95.7526 81.5813 95.4752 81.08C95.2086 80.5787 94.8353 80.1947 94.3552 79.928C93.8859 79.6507 93.3579 79.512 92.7712 79.512C92.1739 79.512 91.6352 79.6507 91.1552 79.928C90.6859 80.1947 90.3126 80.5787 90.0352 81.08C89.7686 81.5813 89.6352 82.152 89.6352 82.792C89.6352 83.432 89.7686 84.0027 90.0352 84.504C90.3126 85.0053 90.6859 85.3947 91.1552 85.672C91.6352 85.9387 92.1739 86.072 92.7712 86.072ZM107.387 76.824H103.451V75.8H112.507V76.824H108.571V87H107.387V76.824ZM115.331 80.232C115.598 79.6667 115.993 79.24 116.515 78.952C117.049 78.664 117.705 78.52 118.483 78.52V79.624L118.211 79.608C117.326 79.608 116.633 79.88 116.131 80.424C115.63 80.968 115.379 81.7307 115.379 82.712V87H114.243V78.584H115.331V80.232ZM123.772 78.52C124.871 78.52 125.714 78.7973 126.3 79.352C126.887 79.896 127.18 80.7067 127.18 81.784V87H126.092V85.688C125.836 86.1253 125.458 86.4667 124.956 86.712C124.466 86.9573 123.879 87.08 123.196 87.08C122.258 87.08 121.511 86.856 120.956 86.408C120.402 85.96 120.124 85.368 120.124 84.632C120.124 83.9173 120.38 83.3413 120.892 82.904C121.415 82.4667 122.242 82.248 123.372 82.248H126.044V81.736C126.044 81.0107 125.842 80.4613 125.436 80.088C125.031 79.704 124.439 79.512 123.66 79.512C123.127 79.512 122.615 79.6027 122.124 79.784C121.634 79.9547 121.212 80.1947 120.86 80.504L120.348 79.656C120.775 79.2933 121.287 79.016 121.884 78.824C122.482 78.6213 123.111 78.52 123.772 78.52ZM123.372 86.184C124.012 86.184 124.562 86.04 125.02 85.752C125.479 85.4533 125.82 85.0267 126.044 84.472V83.096H123.404C121.964 83.096 121.244 83.5973 121.244 84.6C121.244 85.0907 121.431 85.48 121.804 85.768C122.178 86.0453 122.7 86.184 123.372 86.184ZM137.486 78.584L133.742 87H132.574L128.846 78.584H130.03L133.182 85.752L136.366 78.584H137.486ZM146.483 83.144H139.443C139.507 84.0187 139.843 84.728 140.451 85.272C141.059 85.8053 141.827 86.072 142.755 86.072C143.278 86.072 143.758 85.9813 144.195 85.8C144.633 85.608 145.011 85.3307 145.331 84.968L145.971 85.704C145.598 86.152 145.129 86.4933 144.563 86.728C144.009 86.9627 143.395 87.08 142.723 87.08C141.859 87.08 141.091 86.8987 140.419 86.536C139.758 86.1627 139.241 85.6507 138.867 85C138.494 84.3493 138.307 83.6133 138.307 82.792C138.307 81.9707 138.483 81.2347 138.835 80.584C139.198 79.9333 139.689 79.4267 140.307 79.064C140.937 78.7013 141.641 78.52 142.419 78.52C143.198 78.52 143.897 78.7013 144.515 79.064C145.134 79.4267 145.619 79.9333 145.971 80.584C146.323 81.224 146.499 81.96 146.499 82.792L146.483 83.144ZM142.419 79.496C141.609 79.496 140.926 79.7573 140.371 80.28C139.827 80.792 139.518 81.464 139.443 82.296H145.411C145.337 81.464 145.022 80.792 144.467 80.28C143.923 79.7573 143.241 79.496 142.419 79.496ZM149.116 75.128H150.252V87H149.116V75.128Z" fill="white"/>
<path d="M56.212 148.952H56.596C56.332 147.392 55.096 146.288 53.368 146.288C50.968 146.288 49.444 148.124 49.444 150.716C49.444 153.368 50.98 155.132 53.332 155.132C55.144 155.132 56.5 153.86 56.728 152.048H56.344C56.164 153.488 55.06 154.796 53.332 154.796C51.136 154.796 49.828 153.092 49.828 150.716C49.828 148.388 51.112 146.624 53.368 146.624C54.916 146.624 56.008 147.644 56.212 148.952ZM61.8737 150.428C61.8737 151.484 60.8417 151.46 59.9177 151.604C58.3337 151.844 57.6137 152.348 57.6137 153.5C57.6137 154.496 58.4177 155.132 59.5937 155.132C60.5657 155.132 61.3577 154.808 61.8497 153.992H61.8737C61.8737 154.772 62.1257 155.06 62.7497 155.06C62.8457 155.06 62.9897 155.048 63.1457 155.012V154.7C62.1737 154.904 62.2337 154.244 62.2337 153.764V150.644C62.2337 149.216 61.3337 148.748 60.2177 148.748C58.4897 148.748 57.9617 149.72 57.9017 150.572H58.2617C58.3217 149.648 58.9817 149.06 60.2177 149.06C61.1657 149.06 61.8737 149.492 61.8737 150.428ZM59.6897 154.82C58.5857 154.82 57.9737 154.34 57.9737 153.392C57.9737 152.408 58.8617 152.06 60.0377 151.916C60.9377 151.808 61.6937 151.688 61.8737 151.292V153.116C61.8737 153.812 61.1897 154.82 59.6897 154.82ZM66.3165 148.748C65.4645 148.748 64.7205 149.348 64.4565 150.152H64.4325V148.832H64.0725V155H64.4325V151.172C64.4325 149.816 65.5605 148.916 66.7365 149.096H66.7605V148.784C66.6405 148.76 66.5085 148.748 66.3165 148.748ZM72.1205 146.42V150.452H72.0965C71.7365 149.504 70.9805 148.748 69.7805 148.748C68.3165 148.748 67.1405 149.924 67.1405 151.94C67.1405 153.956 68.3165 155.132 69.7805 155.132C70.9805 155.132 71.7485 154.352 72.0965 153.464H72.1205V155H72.4805V146.42H72.1205ZM69.8645 154.82C68.4845 154.82 67.5005 153.74 67.5005 151.94C67.5005 150.14 68.4845 149.06 69.8645 149.06C71.0525 149.06 72.1205 150.14 72.1205 151.94C72.1205 153.74 71.0525 154.82 69.8645 154.82ZM77.1231 146.42V155H77.5071V150.608H82.9911V155H83.3751V146.42H82.9911V150.272H77.5071V146.42H77.1231ZM87.5195 155.132C89.2715 155.132 90.3395 153.848 90.3395 151.94C90.3395 150.032 89.2715 148.748 87.5195 148.748C85.7675 148.748 84.6995 150.032 84.6995 151.94C84.6995 153.848 85.7675 155.132 87.5195 155.132ZM87.5195 154.82C85.9475 154.82 85.0595 153.608 85.0595 151.94C85.0595 150.272 85.9475 149.06 87.5195 149.06C89.0915 149.06 89.9795 150.272 89.9795 151.94C89.9795 153.608 89.0915 154.82 87.5195 154.82ZM91.5571 146.42V155H91.9171V146.42H91.5571ZM98.1043 146.42V150.452H98.0803C97.7203 149.504 96.9643 148.748 95.7643 148.748C94.3003 148.748 93.1243 149.924 93.1243 151.94C93.1243 153.956 94.3003 155.132 95.7643 155.132C96.9643 155.132 97.7323 154.352 98.0803 153.464H98.1043V155H98.4643V146.42H98.1043ZM95.8483 154.82C94.4683 154.82 93.4843 153.74 93.4843 151.94C93.4843 150.14 94.4683 149.06 95.8483 149.06C97.0363 149.06 98.1043 150.14 98.1043 151.94C98.1043 153.74 97.0363 154.82 95.8483 154.82ZM102.441 154.82C100.821 154.82 100.005 153.524 100.005 151.952V151.88H105.033C105.033 150.08 104.217 148.748 102.429 148.748C100.773 148.748 99.6452 149.936 99.6452 151.94C99.6452 153.86 100.725 155.132 102.441 155.132C103.881 155.132 104.685 154.28 104.949 153.152H104.589C104.445 153.812 103.869 154.82 102.441 154.82ZM102.429 149.06C103.977 149.06 104.673 150.332 104.673 151.568H100.005C100.041 150.26 100.905 149.06 102.429 149.06ZM108.43 148.748C107.578 148.748 106.834 149.348 106.57 150.152H106.546V148.832H106.186V155H106.546V151.172C106.546 149.816 107.674 148.916 108.85 149.096H108.874V148.784C108.754 148.76 108.622 148.748 108.43 148.748Z" fill="white"/>
<path d="M261.164 150.272V146.756H266.42V146.42H260.78V155H266.54V154.664H261.164V150.608H266V150.272H261.164ZM267.488 148.832L269.756 151.844L267.296 155H267.752L269.984 152.072H270.008L272.252 155H272.708L270.236 151.844L272.504 148.832H272.06L270.008 151.592H269.984L267.932 148.832H267.488ZM276.355 148.748C275.155 148.748 274.399 149.504 274.039 150.452H274.015V148.832H273.655V156.992H274.015V153.464H274.039C274.387 154.352 275.155 155.132 276.355 155.132C277.819 155.132 278.995 153.956 278.995 151.94C278.995 149.924 277.819 148.748 276.355 148.748ZM276.271 154.82C275.083 154.82 274.015 153.74 274.015 151.94C274.015 150.14 275.083 149.06 276.271 149.06C277.651 149.06 278.635 150.14 278.635 151.94C278.635 153.74 277.651 154.82 276.271 154.82ZM280.499 147.356C280.643 147.356 280.799 147.248 280.799 147.068C280.799 146.876 280.643 146.78 280.499 146.78C280.367 146.78 280.199 146.876 280.199 147.068C280.199 147.248 280.367 147.356 280.499 147.356ZM280.319 148.832V155H280.679V148.832H280.319ZM284.558 148.748C283.706 148.748 282.962 149.348 282.698 150.152H282.674V148.832H282.314V155H282.674V151.172C282.674 149.816 283.802 148.916 284.978 149.096H285.002V148.784C284.882 148.76 284.75 148.748 284.558 148.748ZM290.77 148.832H290.386L288.238 154.484H288.226L285.994 148.832H285.61L288.046 154.976C287.878 155.576 287.566 156.236 287.314 156.488C287.026 156.788 286.522 156.68 286.114 156.596H286.09V156.908C286.234 156.956 286.474 157.028 286.81 157.028C287.626 157.028 287.902 156.368 288.346 155.204L290.77 148.832ZM299.349 146.42V150.452H299.325C298.965 149.504 298.209 148.748 297.009 148.748C295.545 148.748 294.369 149.924 294.369 151.94C294.369 153.956 295.545 155.132 297.009 155.132C298.209 155.132 298.977 154.352 299.325 153.464H299.349V155H299.709V146.42H299.349ZM297.093 154.82C295.713 154.82 294.729 153.74 294.729 151.94C294.729 150.14 295.713 149.06 297.093 149.06C298.281 149.06 299.349 150.14 299.349 151.94C299.349 153.74 298.281 154.82 297.093 154.82ZM305.126 150.428C305.126 151.484 304.094 151.46 303.17 151.604C301.586 151.844 300.866 152.348 300.866 153.5C300.866 154.496 301.67 155.132 302.846 155.132C303.818 155.132 304.61 154.808 305.102 153.992H305.126C305.126 154.772 305.378 155.06 306.002 155.06C306.098 155.06 306.242 155.048 306.398 155.012V154.7C305.426 154.904 305.486 154.244 305.486 153.764V150.644C305.486 149.216 304.586 148.748 303.47 148.748C301.742 148.748 301.214 149.72 301.154 150.572H301.514C301.574 149.648 302.234 149.06 303.47 149.06C304.418 149.06 305.126 149.492 305.126 150.428ZM302.942 154.82C301.838 154.82 301.226 154.34 301.226 153.392C301.226 152.408 302.114 152.06 303.29 151.916C304.19 151.808 304.946 151.688 305.126 151.292V153.116C305.126 153.812 304.442 154.82 302.942 154.82ZM309.286 149.144V148.832H307.93V146.84H307.57V148.832H306.67V149.144H307.57V153.5C307.57 154.748 308.062 155.036 308.638 155.036C308.89 155.036 309.07 155.012 309.286 154.964V154.652C307.942 154.94 307.93 154.22 307.93 153.404V149.144H309.286ZM312.79 154.82C311.17 154.82 310.354 153.524 310.354 151.952V151.88H315.382C315.382 150.08 314.566 148.748 312.778 148.748C311.122 148.748 309.994 149.936 309.994 151.94C309.994 153.86 311.074 155.132 312.79 155.132C314.23 155.132 315.034 154.28 315.298 153.152H314.938C314.794 153.812 314.218 154.82 312.79 154.82ZM312.778 149.06C314.326 149.06 315.022 150.332 315.022 151.568H310.354C310.39 150.26 311.254 149.06 312.778 149.06Z" fill="white"/>
<path d="M74.4077 39.5667H63.5923V58.4333H74.4077V39.5667Z" fill="#FF5F00"/>
<path d="M64.279 49C64.279 45.1666 66.133 41.7666 68.9828 39.5666C66.8884 37.9666 64.2446 37 61.3605 37C54.5279 37 49 42.3666 49 49C49 55.6333 54.5279 61 61.3605 61C64.2446 61 66.8884 60.0333 68.9828 58.4333C66.133 56.2666 64.279 52.8333 64.279 49Z" fill="#FF001D"/>
<path d="M89 49C89 55.6333 83.4721 61 76.6395 61C73.7554 61 71.1116 60.0333 69.0172 58.4333C71.9013 56.2333 73.721 52.8333 73.721 49C73.721 45.1667 71.867 41.7667 69.0172 39.5667C71.1116 37.9667 73.7554 37 76.6395 37C83.4721 37 89 42.4 89 49Z" fill="#F79E1B"/>
</g>
<defs>
<filter id="filter0_d" x="0" y="0" width="370" height="250" filterUnits="userSpaceOnUse" color-interpolation-filters="sRGB">
<feFlood flood-opacity="0" result="BackgroundImageFix"/>
<feColorMatrix in="SourceAlpha" type="matrix" values="0 0 0 0 0 0 0 0 0 0 0 0 0 0 0 0 0 0 127 0"/>
<feOffset dy="12"/>
<feGaussianBlur stdDeviation="12.5"/>
<feColorMatrix type="matrix" values="0 0 0 0 0.0604107 0 0 0 0 0.199302 0 0 0 0 0.419214 0 0 0 0.25 0"/>
<feBlend mode="normal" in2="BackgroundImageFix" result="effect1_dropShadow"/>
<feBlend mode="normal" in="SourceGraphic" in2="effect1_dropShadow" result="shape"/>
</filter>
<linearGradient id="paint0_linear" x1="360" y1="13" x2="19.2521" y2="25.057" gradientUnits="userSpaceOnUse">
<stop offset="0.133662" stop-color="#4A5055"/>
<stop offset="1" stop-color="#111318"/>
</linearGradient>
<linearGradient id="paint1_linear" x1="-0.886016" y1="136.329" x2="208.744" y2="-83.7809" gradientUnits="userSpaceOnUse">
<stop stop-color="#EEEEEE"/>
<stop offset="1" stop-color="#D8D8D8" stop-opacity="0"/>
</linearGradient>
<linearGradient id="paint2_linear" x1="-9.76523" y1="134.329" x2="194.181" y2="-125.1" gradientUnits="userSpaceOnUse">
<stop stop-color="#FF1A1A"/>
<stop offset="1" stop-color="#D8D8D8" stop-opacity="0"/>
</linearGradient>
<linearGradient id="paint3_linear" x1="-7.6696" y1="176.442" x2="73.726" y2="-82.1159" gradientUnits="userSpaceOnUse">
<stop/>
<stop offset="0.0001" stop-opacity="0.453125"/>
<stop offset="1" stop-color="white" stop-opacity="0"/>
</linearGradient>
</defs>
</svg>
